<!DOCTYPE svg PUBLIC "-//W3C//DTD SVG 20010904//EN" "http://www.w3.org/TR/2001/REC-SVG-20010904/DTD/svg10.dtd">
<svg version="1.0" xmlns="http://www.w3.org/2000/svg" width="1600px" height="1600px" viewBox="0 0 16000 16000" preserveAspectRatio="xMidYMid meet">
<g id="layer101" fill="#000000" stroke="none">
 <path d="M14301 14769 c-13 -5 -45 -23 -72 -41 -139 -89 -147 -325 -16 -432 64 -51 79 -56 177 -56 104 0 142 14 202 77 46 48 68 107 68 188 0 118 -42 192 -138 243 -51 27 -70 32 -128 31 -38 0 -80 -5 -93 -10z"/>
 <path d="M15381 13703 c-1 -285 2 -363 12 -363 9 0 11 64 9 292 -2 161 -7 325 -11 363 -6 47 -9 -49 -10 -292z"/>
 <path d="M14268 13850 c-31 -16 -68 -44 -81 -62 -89 -121 -72 -305 35 -390 55 -44 99 -58 178 -58 79 0 123 14 178 58 107 85 124 269 35 390 -13 18 -51 46 -83 62 -50 25 -71 30 -132 30 -61 -1 -83 -6 -130 -30z"/>
 <path d="M14268 12970 c-31 -16 -68 -44 -81 -62 -89 -121 -72 -305 35 -390 55 -44 99 -58 178 -58 79 0 123 14 178 58 107 85 124 269 35 390 -13 18 -51 46 -83 62 -50 25 -71 30 -132 30 -61 -1 -83 -6 -130 -30z"/>
 <path d="M14280 10860 l0 -1080 115 0 115 0 0 1080 0 1080 -115 0 -115 0 0 -1080z"/>
 <path d="M14280 8000 l0 -1060 115 0 115 0 0 1060 0 1060 -115 0 -115 0 0 -1060z"/>
 <path d="M14280 5170 l0 -1080 115 0 115 0 0 1080 0 1080 -115 0 -115 0 0 -1080z"/>
 <path d="M14293 3570 c-112 -50 -163 -132 -163 -260 0 -38 6 -77 15 -94 8 -15 15 -34 15 -41 0 -19 86 -94 132 -115 58 -26 158 -26 216 0 46 21 132 96 132 115 0 7 7 26 15 41 20 40 19 147 -2 208 -36 101 -136 166 -253 166 -43 0 -79 -7 -107 -20z"/>
 <path d="M14288 2678 c-27 -11 -48 -24 -48 -29 0 -5 -7 -9 -14 -9 -19 0 -59 -54 -79 -108 -21 -54 -22 -167 -2 -206 8 -15 15 -34 15 -41 0 -16 78 -88 118 -109 22 -11 58 -16 122 -16 64 0 100 5 122 16 40 21 118 93 118 109 0 7 7 26 15 41 20 39 19 152 -2 206 -20 54 -60 108 -79 108 -7 0 -14 4 -14 9 0 5 -22 18 -49 30 -66 28 -159 28 -223 -1z"/>
 <path d="M14293 1766 c-97 -35 -163 -137 -163 -252 0 -115 47 -197 140 -244 49 -25 72 -30 130 -30 162 0 270 109 270 274 0 118 -68 219 -171 254 -44 15 -163 14 -206 -2z"/>
 </g>
<g id="layer102" fill="#f5f9fc" stroke="none">
 <path d="M4015 14779 c-194 -20 -350 -122 -431 -282 l-35 -68 1 -3747 0 -3747 37 -33 c21 -19 54 -48 73 -66 64 -60 73 -62 208 -58 l122 4 0 3686 c0 2617 3 3699 11 3727 14 52 69 109 139 143 l55 27 596 3 596 3 19 -53 c19 -52 19 -138 21 -3718 2 -2016 3 -3668 3 -3671 0 -3 37 -38 82 -77 l81 -72 134 0 133 0 0 3708 c-1 3001 -3 3718 -14 3767 -24 113 -67 172 -238 325 -93 84 -143 121 -208 153 l-85 42 -345 3 c-190 1 -469 3 -620 5 -151 1 -302 -1 -335 -4z"/>
 <path d="M7128 14783 l-118 -4 0 -3794 0 -3795 -475 0 -475 0 0 -129 0 -129 38 -31 c20 -17 53 -46 73 -64 20 -17 44 -38 52 -44 13 -10 244 -13 1082 -13 l1065 0 0 123 -1 122 -94 83 -95 83 -370 -1 -370 -1 -2 3727 -3 3727 -82 74 c-46 40 -88 72 -95 71 -7 -1 -66 -4 -130 -5z"/>
 <path d="M12993 14778 c-5 -7 -15 -33 -22 -58 -7 -25 -26 -85 -42 -135 -17 -49 -36 -112 -43 -140 -7 -27 -27 -90 -44 -140 -17 -49 -38 -119 -47 -155 -9 -36 -20 -69 -24 -75 -4 -5 -18 -46 -30 -90 -13 -44 -39 -125 -58 -181 -19 -55 -40 -125 -48 -155 -8 -30 -28 -97 -45 -149 -34 -102 -82 -256 -149 -470 -24 -74 -51 -162 -62 -195 -11 -33 -29 -89 -40 -125 -11 -36 -37 -119 -58 -185 -21 -66 -56 -178 -79 -250 -22 -71 -53 -166 -67 -210 -14 -44 -34 -109 -45 -145 -10 -36 -33 -112 -52 -170 -33 -100 -68 -209 -156 -490 -22 -69 -50 -158 -63 -197 l-23 -73 -138 0 -138 0 0 1813 0 1812 -93 80 -92 81 -122 -4 -123 -4 0 -3887 c0 -2137 -3 -3895 -5 -3906 -6 -20 8 -37 101 -122 23 -21 50 -45 61 -54 18 -15 107 -17 884 -20 783 -4 869 -2 920 13 88 26 192 88 225 136 8 12 27 34 41 48 33 33 78 135 93 209 8 44 10 491 8 1670 l-3 1610 -32 70 c-32 70 -75 130 -127 175 -15 14 -42 40 -59 58 -17 17 -35 32 -40 32 -6 0 -27 17 -47 38 -59 60 -126 103 -203 130 -68 24 -85 26 -334 30 l-263 4 6 26 c3 15 23 81 45 147 21 66 56 179 79 250 22 72 58 184 79 250 21 66 57 181 80 255 23 74 59 189 80 255 21 66 58 181 81 255 24 74 60 189 81 255 21 66 55 176 77 245 77 248 183 584 242 770 52 162 109 343 160 505 22 72 54 171 70 220 17 50 30 97 29 105 0 8 -41 50 -90 93 -72 64 -99 81 -141 92 -65 16 -141 43 -179 63 -3 1 -10 -3 -16 -10z m-37 -4215 c11 -26 24 -1796 13 -1807 -5 -6 -9 -293 -9 -690 l-1 -681 -27 -55 c-21 -43 -40 -64 -87 -95 l-60 -40 -632 -3 -633 -2 0 1695 0 1695 714 0 c670 0 714 -1 722 -17z"/>
 <path d="M2110 10985 l0 -3795 -435 0 -435 0 0 -101 c0 -55 -5 -109 -10 -120 -9 -16 -4 -26 37 -62 26 -23 60 -54 76 -69 64 -63 -20 -58 1059 -58 l988 0 0 128 0 129 -39 39 c-21 21 -58 56 -82 78 l-44 38 -342 -1 -343 -2 -1 3718 -1 3718 -86 77 -87 77 -127 1 -128 0 0 -3795z"/>
 <path d="M9030 14773 c-59 -9 -168 -37 -205 -53 -84 -37 -192 -146 -244 -247 l-21 -42 0 -3580 c0 -2744 3 -3587 12 -3608 27 -64 115 -172 195 -238 46 -38 91 -78 101 -88 51 -55 140 -102 233 -124 65 -15 146 -18 679 -21 542 -3 614 -2 690 14 47 9 99 24 115 32 95 48 193 148 243 250 l37 77 0 3550 0 3550 -38 77 c-25 52 -57 98 -100 140 -106 108 -244 222 -310 255 -121 62 -134 63 -779 62 -321 -1 -594 -3 -608 -6z m1382 -478 c17 -57 18 -218 18 -3451 0 -2898 -2 -3397 -14 -3435 -8 -24 -17 -57 -21 -73 -7 -32 -67 -91 -128 -123 l-42 -23 -585 0 c-322 0 -595 3 -607 6 -12 4 -26 19 -32 36 -8 22 -11 1066 -11 3464 0 3433 0 3433 20 3488 32 85 113 147 215 166 22 4 294 7 604 6 l565 -1 18 -60z"/>
 <path d="M6938 6262 l-118 -3 0 -1194 0 -1195 -520 0 -520 0 0 1114 0 1113 -27 27 c-67 65 -119 108 -143 119 -16 8 -67 11 -143 9 l-118 -3 4 -1707 c4 -1807 5 -1824 53 -2068 13 -71 29 -155 34 -187 9 -51 33 -134 95 -322 20 -59 78 -194 103 -240 87 -155 145 -225 267 -320 28 -22 69 -58 91 -80 110 -106 254 -180 424 -217 99 -22 126 -23 470 -23 l365 0 2 2510 3 2510 -95 80 c-53 44 -99 80 -103 80 -4 0 -60 -1 -124 -3z m-118 -3789 l0 -986 -162 7 c-253 10 -340 23 -446 63 -64 24 -98 43 -110 62 -77 111 -154 302 -206 513 -40 165 -49 215 -76 468 -33 310 -40 416 -40 643 l0 217 520 0 520 0 0 -987z"/>
 <path d="M13098 6262 l-118 -3 0 -1194 0 -1195 -520 0 -520 0 0 1114 0 1114 -72 64 c-40 36 -83 70 -95 76 -13 7 -70 12 -142 12 l-121 0 -2 -1507 c-3 -1737 -4 -1619 10 -1878 11 -206 28 -338 62 -483 11 -46 20 -95 20 -108 0 -25 67 -248 103 -344 22 -60 92 -206 135 -284 37 -68 224 -255 392 -392 55 -45 209 -121 270 -133 25 -5 79 -16 120 -26 63 -13 132 -16 422 -15 192 0 355 3 363 6 13 5 15 290 15 2513 l0 2506 -90 78 c-49 42 -95 78 -102 80 -7 1 -66 1 -130 -1z m-118 -3789 l0 -986 -187 6 c-236 8 -346 25 -446 67 -72 30 -81 38 -108 84 -82 143 -129 265 -178 458 -43 171 -54 232 -76 433 -37 335 -45 463 -45 688 l0 237 520 0 520 0 0 -987z"/>
 <path d="M2088 6253 l-848 -3 -2 -2490 c-1 -1370 -2 -2498 -2 -2507 -1 -9 38 -52 87 -95 l89 -78 426 0 c350 1 438 3 487 16 33 8 74 19 92 23 60 16 188 86 258 142 78 61 174 165 229 245 103 152 197 417 215 608 7 71 11 792 11 2055 l0 1946 -57 53 c-65 59 -113 93 -128 90 -5 -2 -391 -4 -857 -5z m612 -1398 l0 -985 -510 0 -510 0 0 985 0 985 510 0 510 0 0 -985z m-3 -1932 c-3 -567 -3 -565 -55 -820 -12 -56 -90 -217 -129 -267 -18 -23 -33 -44 -33 -48 0 -9 -94 -101 -147 -144 -51 -42 -195 -115 -246 -126 -78 -16 -192 -27 -299 -27 l-108 -1 0 985 0 985 510 0 511 0 -4 -537z"/>
 <path d="M4138 6253 l-848 -3 -2 -2508 -3 -2507 35 -33 c19 -18 60 -54 90 -80 l55 -47 133 3 132 3 0 2379 0 2380 733 2 732 3 3 126 3 127 -92 81 c-50 44 -99 80 -108 79 -9 -2 -397 -4 -863 -5z"/>
 <path d="M8243 6253 l-843 -3 -2 -2503 c-3 -2211 -1 -2504 12 -2521 8 -10 48 -48 89 -82 l74 -64 410 0 c407 0 410 0 516 26 119 29 242 89 333 160 65 51 208 207 208 228 0 7 9 21 20 31 21 19 109 194 128 255 42 132 53 173 67 240 32 161 35 380 35 2232 l0 1850 -37 35 c-77 72 -99 90 -125 106 -15 10 -31 16 -35 15 -4 -2 -387 -4 -850 -5z m617 -1398 l0 -985 -510 0 -510 0 0 985 0 985 510 0 510 0 0 -985z m0 -1825 c0 -400 -2 -443 -25 -622 -39 -302 -38 -296 -96 -425 -10 -23 -19 -45 -19 -48 0 -15 -112 -173 -147 -208 -83 -82 -215 -166 -309 -197 -50 -17 -172 -31 -306 -37 l-118 -4 0 985 0 986 510 0 510 0 0 -430z"/>
 <path d="M10298 6253 l-848 -3 0 -2510 0 -2510 28 -17 c15 -10 39 -29 53 -43 14 -14 42 -40 61 -57 l35 -33 132 0 131 0 0 2380 0 2380 733 2 732 3 3 126 3 126 -76 68 c-97 87 -107 95 -125 92 -8 -1 -396 -3 -862 -4z"/>
 </g>

</svg>