<?xml version="1.0" standalone="no"?><!-- Generator: Gravit.io --><svg xmlns="http://www.w3.org/2000/svg" xmlns:xlink="http://www.w3.org/1999/xlink" style="isolation:isolate" viewBox="0 0 48 48" width="48" height="48"><defs><clipPath id="_clipPath_BKUYRgjtzgwqp33WUMXhG0BTW8sPU05Q"><rect width="48" height="48"/></clipPath></defs><g clip-path="url(#_clipPath_BKUYRgjtzgwqp33WUMXhG0BTW8sPU05Q)"><g id="layer101"><path d=" M 44.27 47.933 C 44.226 47.915 44.117 47.852 44.026 47.789 C 43.555 47.478 43.528 46.652 43.972 46.277 C 44.188 46.099 44.239 46.081 44.571 46.081 C 44.923 46.081 45.052 46.13 45.255 46.351 C 45.411 46.519 45.485 46.725 45.485 47.009 C 45.485 47.422 45.343 47.681 45.018 47.859 C 44.845 47.954 44.781 47.971 44.585 47.968 C 44.456 47.968 44.314 47.95 44.27 47.933 Z " fill="rgb(0,0,0)"/><path d=" M 47.926 44.202 C 47.923 43.204 47.933 42.931 47.967 42.931 C 47.998 42.931 48.004 43.155 47.998 43.953 C 47.991 44.517 47.974 45.091 47.96 45.224 C 47.94 45.388 47.93 45.052 47.926 44.202 Z " fill="rgb(0,0,0)"/><path d=" M 44.158 44.716 C 44.053 44.66 43.928 44.562 43.884 44.499 C 43.582 44.076 43.64 43.432 44.002 43.134 C 44.188 42.98 44.337 42.931 44.605 42.931 C 44.872 42.931 45.021 42.98 45.208 43.134 C 45.57 43.432 45.627 44.076 45.326 44.499 C 45.282 44.562 45.153 44.66 45.045 44.716 C 44.876 44.804 44.805 44.821 44.598 44.821 C 44.392 44.818 44.317 44.8 44.158 44.716 Z " fill="rgb(0,0,0)"/><path d=" M 44.158 41.636 C 44.053 41.58 43.928 41.482 43.884 41.419 C 43.582 40.995 43.64 40.351 44.002 40.054 C 44.188 39.9 44.337 39.851 44.605 39.851 C 44.872 39.851 45.021 39.9 45.208 40.054 C 45.57 40.351 45.627 40.995 45.326 41.419 C 45.282 41.482 45.153 41.58 45.045 41.636 C 44.876 41.723 44.805 41.741 44.598 41.741 C 44.392 41.737 44.317 41.72 44.158 41.636 Z " fill="rgb(0,0,0)"/><path d=" M 44.199 34.25 L 44.199 30.47 L 44.588 30.47 L 44.977 30.47 L 44.977 34.25 L 44.977 38.031 L 44.588 38.031 L 44.199 38.031 L 44.199 34.25 Z " fill="rgb(0,0,0)"/><path d=" M 44.199 24.24 L 44.199 20.529 L 44.588 20.529 L 44.977 20.529 L 44.977 24.24 L 44.977 27.95 L 44.588 27.95 L 44.199 27.95 L 44.199 24.24 Z " fill="rgb(0,0,0)"/><path d=" M 44.199 14.334 L 44.199 10.553 L 44.588 10.553 L 44.977 10.553 L 44.977 14.334 L 44.977 18.114 L 44.588 18.114 L 44.199 18.114 L 44.199 14.334 Z " fill="rgb(0,0,0)"/><path d=" M 44.243 8.733 C 43.863 8.558 43.691 8.271 43.691 7.823 C 43.691 7.69 43.711 7.554 43.742 7.494 C 43.769 7.442 43.792 7.375 43.792 7.351 C 43.792 7.284 44.084 7.022 44.239 6.948 C 44.436 6.857 44.774 6.857 44.971 6.948 C 45.126 7.022 45.418 7.284 45.418 7.351 C 45.418 7.375 45.441 7.442 45.468 7.494 C 45.536 7.634 45.533 8.009 45.462 8.222 C 45.34 8.576 45.001 8.803 44.605 8.803 C 44.459 8.803 44.337 8.779 44.243 8.733 Z " fill="rgb(0,0,0)"/><path d=" M 44.226 5.611 C 44.134 5.572 44.063 5.527 44.063 5.509 C 44.063 5.492 44.04 5.478 44.016 5.478 C 43.951 5.478 43.816 5.289 43.748 5.1 C 43.677 4.911 43.674 4.515 43.742 4.379 C 43.769 4.326 43.792 4.26 43.792 4.235 C 43.792 4.179 44.056 3.927 44.192 3.854 C 44.266 3.815 44.388 3.798 44.605 3.798 C 44.822 3.798 44.944 3.815 45.018 3.854 C 45.153 3.927 45.418 4.179 45.418 4.235 C 45.418 4.26 45.441 4.326 45.468 4.379 C 45.536 4.515 45.533 4.911 45.462 5.1 C 45.394 5.289 45.258 5.478 45.194 5.478 C 45.17 5.478 45.147 5.492 45.147 5.509 C 45.147 5.527 45.072 5.572 44.981 5.614 C 44.757 5.712 44.442 5.712 44.226 5.611 Z " fill="rgb(0,0,0)"/><path d=" M 44.243 2.419 C 43.914 2.296 43.691 1.939 43.691 1.537 C 43.691 1.134 43.85 0.847 44.165 0.683 C 44.331 0.595 44.409 0.578 44.605 0.578 C 45.153 0.578 45.519 0.959 45.519 1.537 C 45.519 1.95 45.289 2.303 44.94 2.426 C 44.791 2.478 44.388 2.475 44.243 2.419 Z " fill="rgb(0,0,0)"/></g><g id="layer102"><path d=" M 9.443 47.968 C 8.786 47.898 8.257 47.541 7.983 46.981 L 7.865 46.743 L 7.868 33.627 L 7.868 20.512 L 7.993 20.396 C 8.064 20.33 8.176 20.228 8.241 20.165 C 8.457 19.955 8.488 19.948 8.945 19.962 L 9.358 19.976 L 9.358 32.878 C 9.358 42.038 9.368 45.826 9.395 45.924 C 9.443 46.106 9.629 46.305 9.866 46.424 L 10.052 46.519 L 12.07 46.529 L 14.088 46.54 L 14.152 46.354 C 14.217 46.172 14.217 45.871 14.223 33.34 C 14.23 26.284 14.234 20.501 14.234 20.491 C 14.234 20.48 14.359 20.358 14.511 20.221 L 14.785 19.969 L 15.239 19.969 L 15.689 19.969 L 15.689 32.948 C 15.686 43.453 15.679 45.962 15.642 46.134 C 15.561 46.529 15.415 46.736 14.836 47.271 C 14.521 47.565 14.352 47.695 14.132 47.807 L 13.844 47.954 L 12.676 47.964 C 12.033 47.968 11.088 47.975 10.577 47.982 C 10.066 47.985 9.554 47.978 9.443 47.968 Z " fill="rgb(245,249,252)"/><path d=" M 19.983 47.982 L 19.583 47.968 L 19.583 34.688 L 19.583 21.404 L 17.975 21.404 L 16.367 21.404 L 16.367 20.953 L 16.367 20.501 L 16.495 20.393 C 16.563 20.333 16.675 20.232 16.743 20.169 C 16.81 20.109 16.891 20.036 16.919 20.015 C 16.963 19.98 17.745 19.969 20.582 19.969 L 24.188 19.969 L 24.188 20.4 L 24.185 20.827 L 23.866 21.117 L 23.545 21.408 L 22.292 21.404 L 21.039 21.401 L 21.032 34.446 L 21.022 47.492 L 20.745 47.751 C 20.589 47.891 20.447 48.003 20.423 47.999 C 20.399 47.996 20.199 47.985 19.983 47.982 Z " fill="rgb(245,249,252)"/><path d=" M 39.841 47.964 C 39.824 47.94 39.79 47.849 39.767 47.761 C 39.743 47.674 39.678 47.464 39.624 47.289 C 39.567 47.117 39.502 46.897 39.479 46.799 C 39.455 46.704 39.387 46.484 39.33 46.309 C 39.272 46.137 39.201 45.892 39.171 45.766 C 39.14 45.64 39.103 45.525 39.089 45.504 C 39.076 45.486 39.028 45.343 38.988 45.189 C 38.944 45.035 38.856 44.751 38.791 44.555 C 38.727 44.363 38.656 44.118 38.629 44.013 C 38.602 43.908 38.534 43.673 38.476 43.491 C 38.361 43.134 38.199 42.595 37.972 41.846 C 37.891 41.587 37.799 41.279 37.762 41.163 C 37.725 41.048 37.664 40.852 37.627 40.726 C 37.589 40.6 37.501 40.309 37.43 40.078 C 37.359 39.847 37.241 39.455 37.163 39.203 C 37.088 38.955 36.983 38.622 36.936 38.468 C 36.889 38.314 36.821 38.087 36.784 37.961 C 36.75 37.835 36.672 37.569 36.607 37.366 C 36.496 37.016 36.377 36.634 36.079 35.65 C 36.005 35.409 35.91 35.097 35.866 34.961 L 35.788 34.705 L 35.321 34.705 L 34.854 34.705 L 34.854 41.051 L 34.854 47.394 L 34.539 47.674 L 34.227 47.957 L 33.814 47.943 L 33.398 47.929 L 33.398 34.324 C 33.398 26.844 33.388 20.69 33.381 20.652 C 33.36 20.582 33.408 20.522 33.723 20.225 C 33.801 20.151 33.892 20.067 33.929 20.036 C 33.99 19.983 34.292 19.976 36.922 19.966 C 39.574 19.952 39.865 19.959 40.037 20.011 C 40.335 20.102 40.687 20.319 40.799 20.487 C 40.826 20.529 40.891 20.606 40.938 20.655 C 41.05 20.771 41.202 21.128 41.253 21.387 C 41.28 21.541 41.287 23.105 41.28 27.232 L 41.27 32.868 L 41.162 33.113 C 41.053 33.358 40.908 33.568 40.731 33.725 C 40.681 33.774 40.589 33.865 40.532 33.928 C 40.474 33.988 40.413 34.04 40.396 34.04 C 40.376 34.04 40.305 34.1 40.237 34.173 C 40.037 34.383 39.811 34.534 39.55 34.628 C 39.32 34.712 39.262 34.719 38.419 34.733 L 37.528 34.747 L 37.549 34.838 C 37.559 34.891 37.627 35.122 37.701 35.353 C 37.772 35.584 37.891 35.979 37.969 36.228 C 38.043 36.48 38.165 36.872 38.236 37.103 C 38.307 37.334 38.429 37.737 38.507 37.996 C 38.585 38.255 38.707 38.657 38.778 38.888 C 38.849 39.119 38.974 39.522 39.052 39.781 C 39.133 40.04 39.255 40.442 39.326 40.673 C 39.397 40.904 39.513 41.289 39.587 41.531 C 39.848 42.399 40.207 43.575 40.406 44.226 C 40.583 44.793 40.776 45.427 40.948 45.994 C 41.023 46.246 41.131 46.592 41.185 46.764 C 41.243 46.939 41.287 47.103 41.283 47.131 C 41.283 47.159 41.145 47.306 40.979 47.457 C 40.735 47.681 40.643 47.74 40.501 47.779 C 40.281 47.835 40.024 47.929 39.895 47.999 C 39.885 48.003 39.861 47.989 39.841 47.964 Z  M 39.716 33.211 C 39.753 33.12 39.797 26.924 39.76 26.886 C 39.743 26.865 39.729 25.86 39.729 24.471 L 39.726 22.087 L 39.634 21.894 C 39.563 21.744 39.499 21.67 39.34 21.562 L 39.137 21.422 L 36.997 21.411 L 34.854 21.404 L 34.854 27.337 L 34.854 33.27 L 37.271 33.27 C 39.54 33.27 39.689 33.267 39.716 33.211 Z " fill="rgb(245,249,252)"/><path d=" M 2.992 34.688 L 2.992 21.404 L 1.52 21.404 L 0.047 21.404 L 0.047 21.051 C 0.047 20.858 0.03 20.669 0.013 20.631 C -0.018 20.575 -0.001 20.54 0.138 20.414 C 0.226 20.333 0.341 20.225 0.395 20.172 C 0.612 19.952 0.328 19.969 3.981 19.969 L 7.326 19.969 L 7.326 20.417 L 7.326 20.869 L 7.194 21.005 C 7.123 21.079 6.998 21.201 6.917 21.278 L 6.768 21.411 L 5.61 21.408 L 4.448 21.401 L 4.445 34.415 L 4.442 47.429 L 4.15 47.698 L 3.856 47.968 L 3.426 47.971 L 2.992 47.971 L 2.992 34.688 Z " fill="rgb(245,249,252)"/><path d=" M 26.423 47.947 C 26.223 47.915 25.854 47.817 25.729 47.761 C 25.444 47.632 25.079 47.25 24.902 46.897 L 24.831 46.75 L 24.831 34.219 C 24.831 24.614 24.842 21.663 24.872 21.59 C 24.963 21.366 25.261 20.988 25.532 20.757 C 25.688 20.624 25.84 20.484 25.874 20.449 C 26.047 20.256 26.348 20.092 26.663 20.015 C 26.883 19.962 27.157 19.952 28.962 19.941 C 30.797 19.931 31.041 19.934 31.298 19.99 C 31.458 20.022 31.634 20.074 31.688 20.102 C 32.009 20.27 32.341 20.62 32.511 20.977 L 32.636 21.247 L 32.636 33.673 L 32.636 46.099 L 32.507 46.368 C 32.423 46.55 32.314 46.711 32.169 46.858 C 31.81 47.236 31.342 47.635 31.119 47.751 C 30.709 47.968 30.665 47.971 28.481 47.968 C 27.394 47.964 26.47 47.957 26.423 47.947 Z  M 31.102 46.274 C 31.16 46.074 31.163 45.511 31.163 34.194 C 31.163 24.05 31.156 22.304 31.116 22.171 C 31.088 22.087 31.058 21.971 31.044 21.915 C 31.021 21.803 30.818 21.597 30.611 21.485 L 30.469 21.404 L 28.488 21.404 C 27.398 21.404 26.474 21.415 26.433 21.425 C 26.392 21.439 26.345 21.492 26.325 21.551 C 26.297 21.628 26.287 25.283 26.287 33.676 C 26.287 45.693 26.287 45.693 26.355 45.885 C 26.463 46.183 26.738 46.4 27.083 46.466 C 27.157 46.48 28.078 46.491 29.128 46.487 L 31.041 46.484 L 31.102 46.274 Z " fill="rgb(245,249,252)"/><path d=" M 19.339 18.156 L 18.94 18.145 L 18.94 13.966 L 18.94 9.783 L 17.179 9.783 L 15.419 9.783 L 15.419 13.683 L 15.419 17.578 L 15.327 17.673 C 15.1 17.9 14.924 18.051 14.843 18.089 C 14.789 18.117 14.616 18.128 14.359 18.121 L 13.959 18.11 L 13.973 12.136 C 13.986 5.81 13.99 5.751 14.152 4.897 C 14.196 4.648 14.25 4.354 14.267 4.242 C 14.298 4.064 14.379 3.773 14.589 3.115 C 14.657 2.909 14.853 2.436 14.938 2.275 C 15.232 1.733 15.429 1.488 15.842 1.155 C 15.937 1.078 16.075 0.952 16.15 0.875 C 16.522 0.504 17.01 0.245 17.586 0.116 C 17.921 0.039 18.012 0.035 19.177 0.035 L 20.413 0.035 L 20.42 8.821 L 20.43 17.606 L 20.108 17.886 C 19.929 18.04 19.773 18.167 19.759 18.167 C 19.746 18.167 19.556 18.163 19.339 18.156 Z  M 18.94 4.893 L 18.94 1.442 L 18.391 1.467 C 17.535 1.502 17.24 1.547 16.881 1.687 C 16.665 1.771 16.55 1.838 16.509 1.904 C 16.248 2.293 15.987 2.961 15.811 3.7 C 15.676 4.277 15.645 4.452 15.554 5.338 C 15.442 6.423 15.419 6.794 15.419 7.589 L 15.419 8.348 L 17.179 8.348 L 18.94 8.348 L 18.94 4.893 Z " fill="rgb(245,249,252)"/><path d=" M 40.197 18.156 L 39.797 18.145 L 39.797 13.966 L 39.797 9.783 L 38.036 9.783 L 36.276 9.783 L 36.276 13.683 L 36.276 17.582 L 36.032 17.806 C 35.896 17.932 35.751 18.051 35.71 18.072 C 35.666 18.096 35.473 18.114 35.229 18.114 L 34.82 18.114 L 34.813 12.839 C 34.803 6.759 34.799 7.172 34.847 6.266 C 34.884 5.544 34.942 5.082 35.057 4.575 C 35.094 4.414 35.124 4.242 35.124 4.197 C 35.124 4.109 35.351 3.329 35.473 2.993 C 35.548 2.783 35.785 2.272 35.93 1.999 C 36.056 1.761 36.689 1.106 37.258 0.627 C 37.444 0.469 37.965 0.203 38.172 0.161 C 38.256 0.144 38.439 0.105 38.578 0.07 C 38.791 0.025 39.025 0.014 40.007 0.018 C 40.657 0.018 41.209 0.028 41.236 0.039 C 41.28 0.056 41.287 1.054 41.287 8.835 L 41.287 17.606 L 40.982 17.879 C 40.816 18.026 40.66 18.153 40.637 18.16 C 40.613 18.163 40.413 18.163 40.197 18.156 Z  M 39.797 4.893 L 39.797 1.442 L 39.164 1.463 C 38.365 1.491 37.992 1.551 37.654 1.698 C 37.41 1.803 37.379 1.831 37.288 1.992 C 37.01 2.492 36.851 2.919 36.685 3.595 C 36.54 4.193 36.503 4.407 36.428 5.11 C 36.303 6.283 36.276 6.731 36.276 7.519 L 36.276 8.348 L 38.036 8.348 L 39.797 8.348 L 39.797 4.893 Z " fill="rgb(245,249,252)"/><path d=" M 2.918 18.124 L 0.047 18.114 L 0.04 9.398 C 0.037 4.603 0.033 0.655 0.033 0.623 C 0.03 0.592 0.162 0.441 0.328 0.291 L 0.629 0.018 L 2.071 0.018 C 3.257 0.021 3.554 0.028 3.72 0.074 C 3.832 0.102 3.971 0.14 4.032 0.154 C 4.235 0.21 4.668 0.455 4.905 0.651 C 5.17 0.865 5.495 1.229 5.681 1.509 C 6.03 2.041 6.348 2.968 6.409 3.637 C 6.432 3.885 6.446 6.409 6.446 10.83 L 6.446 17.641 L 6.253 17.827 C 6.033 18.033 5.87 18.153 5.82 18.142 C 5.803 18.135 4.496 18.128 2.918 18.124 Z  M 4.99 13.231 L 4.99 9.783 L 3.263 9.783 L 1.537 9.783 L 1.537 13.231 L 1.537 16.679 L 3.263 16.679 L 4.99 16.679 L 4.99 13.231 Z  M 4.98 6.469 C 4.97 4.484 4.97 4.491 4.794 3.598 C 4.753 3.402 4.489 2.839 4.357 2.664 C 4.296 2.583 4.245 2.51 4.245 2.496 C 4.245 2.464 3.927 2.142 3.747 1.992 C 3.575 1.845 3.087 1.589 2.915 1.551 C 2.65 1.495 2.264 1.456 1.902 1.456 L 1.537 1.453 L 1.537 4.9 L 1.537 8.348 L 3.263 8.348 L 4.993 8.348 L 4.98 6.469 Z " fill="rgb(245,249,252)"/><path d=" M 9.859 18.124 L 6.988 18.114 L 6.981 9.335 L 6.971 0.56 L 7.089 0.445 C 7.154 0.382 7.293 0.256 7.394 0.165 L 7.58 0 L 8.031 0.011 L 8.478 0.021 L 8.478 8.348 L 8.478 16.679 L 10.959 16.686 L 13.438 16.696 L 13.448 17.137 L 13.458 17.582 L 13.147 17.865 C 12.977 18.019 12.811 18.145 12.781 18.142 C 12.751 18.135 11.437 18.128 9.859 18.124 Z " fill="rgb(245,249,252)"/><path d=" M 23.758 18.124 L 20.904 18.114 L 20.897 9.353 C 20.887 1.614 20.894 0.588 20.938 0.529 C 20.965 0.494 21.1 0.361 21.239 0.242 L 21.49 0.018 L 22.878 0.018 C 24.256 0.018 24.266 0.018 24.625 0.109 C 25.028 0.21 25.444 0.42 25.752 0.669 C 25.972 0.847 26.457 1.393 26.457 1.467 C 26.457 1.491 26.487 1.54 26.524 1.575 C 26.595 1.642 26.893 2.254 26.958 2.468 C 27.1 2.93 27.137 3.073 27.185 3.308 C 27.293 3.871 27.303 4.638 27.303 11.12 L 27.303 17.596 L 27.178 17.718 C 26.917 17.97 26.843 18.033 26.755 18.089 C 26.704 18.124 26.65 18.145 26.636 18.142 C 26.623 18.135 25.326 18.128 23.758 18.124 Z  M 25.847 13.231 L 25.847 9.783 L 24.12 9.783 L 22.394 9.783 L 22.394 13.231 L 22.394 16.679 L 24.12 16.679 L 25.847 16.679 L 25.847 13.231 Z  M 25.847 6.843 C 25.847 5.443 25.84 5.292 25.763 4.666 C 25.63 3.609 25.634 3.63 25.437 3.178 C 25.404 3.098 25.373 3.021 25.373 3.01 C 25.373 2.958 24.994 2.405 24.875 2.282 C 24.594 1.995 24.147 1.701 23.829 1.593 C 23.66 1.533 23.247 1.484 22.793 1.463 L 22.394 1.449 L 22.394 4.897 L 22.394 8.348 L 24.12 8.348 L 25.847 8.348 L 25.847 6.843 Z " fill="rgb(245,249,252)"/><path d=" M 30.716 18.124 L 27.845 18.114 L 27.845 9.328 L 27.845 0.543 L 27.94 0.483 C 27.99 0.448 28.072 0.382 28.119 0.333 C 28.166 0.284 28.261 0.193 28.326 0.133 L 28.444 0.018 L 28.891 0.018 L 29.335 0.018 L 29.335 8.348 L 29.335 16.679 L 31.816 16.686 L 34.295 16.696 L 34.305 17.137 L 34.315 17.578 L 34.058 17.816 C 33.729 18.121 33.696 18.149 33.635 18.138 C 33.608 18.135 32.294 18.128 30.716 18.124 Z " fill="rgb(245,249,252)"/></g></g></svg>